<?xml version="1.0" encoding="utf-8"?>
<!-- Generator: Adobe Illustrator 18.1.0, SVG Export Plug-In . SVG Version: 6.00 Build 0)  -->
<!DOCTYPE svg PUBLIC "-//W3C//DTD SVG 1.1//EN" "http://www.w3.org/Graphics/SVG/1.1/DTD/svg11.dtd">
<svg version="1.1" id="Layer_1" xmlns="http://www.w3.org/2000/svg" xmlns:xlink="http://www.w3.org/1999/xlink" x="0px" y="0px"
	 viewBox="-255 367 100 60" style="enable-background:new -255 367 100 60;" xml:space="preserve">
<style type="text/css">
	.st0{fill:#BC9D6D;}
</style>
<g>
	<path class="st0" d="M-179.5,401.4C-179.5,401.4-179.5,401.4-179.5,401.4c4.7-1.4,9.7-3.4,14.4-5.9c7.6-4.4,11.5,0.2,8.6,7.1
		c-2.4,6.6-15.1,18.7-26.3,21.5c-4.3-3-12.6-5.1-22.3-5.1c-9.6,0-18,2.1-22.3,5.1c-11.1-2.8-23.9-15-26.3-21.5
		c-2.8-6.9,1.1-11.5,8.6-7.1c4.7,2.6,9.7,4.5,14.4,5.9c10.2,3.1,19.5,3.8,24.4,3.8l2.7,0C-198.5,405.2-189.4,404.4-179.5,401.4z"/>
	<g id="XMLID_1_">
		<path class="st0" d="M-193.3,370.6c4,2,10.4,20.6,12.9,28.3c-9.6,2.8-18.3,3.5-23.1,3.6l-2.7,0c-4.8,0-13.7-0.7-23.6-3.6
			c2.5-7.6,8.9-26.3,12.9-28.3c4.5-2.3,8.4,1.5,11.6,1.9h-0.6c0.2,0,0.5,0,0.8,0c0.3,0,0.5,0,0.8,0h-0.6
			C-201.7,372.1-197.8,368.3-193.3,370.6z M-194.8,385.1c0-0.8-0.7-1.5-1.5-1.5c-0.8,0-1.4,0.6-1.5,1.3l-4.6-0.7l-2-4.1
			c0.5-0.2,0.9-0.8,0.9-1.4c0-0.8-0.7-1.5-1.5-1.5s-1.5,0.7-1.5,1.5c0,0.6,0.4,1.2,0.9,1.4l-2,4.1l-4.6,0.7
			c-0.1-0.7-0.7-1.3-1.5-1.3c-0.8,0-1.5,0.7-1.5,1.5c0,0.8,0.7,1.5,1.5,1.5c0.5,0,1-0.3,1.2-0.6l3.3,3.2l-0.8,4.8
			c-0.2-0.1-0.4-0.1-0.6-0.1c-0.8,0-1.5,0.7-1.5,1.5s0.7,1.5,1.5,1.5c0.8,0,1.5-0.7,1.5-1.5c0-0.3-0.1-0.6-0.3-0.8l4.4-2.3l4.4,2.3
			c-0.2,0.2-0.3,0.5-0.3,0.8c0,0.8,0.7,1.5,1.5,1.5c0.8,0,1.5-0.7,1.5-1.5s-0.7-1.5-1.5-1.5c-0.2,0-0.4,0-0.6,0.1l-0.8-4.8l3.3-3.2
			c0.3,0.4,0.7,0.6,1.2,0.6C-195.5,386.6-194.8,385.9-194.8,385.1z"/>
	</g>
</g>
</svg>
