<?xml version="1.0" encoding="utf-8"?>
<!-- Generator: Adobe Illustrator 18.1.0, SVG Export Plug-In . SVG Version: 6.00 Build 0)  -->
<!DOCTYPE svg PUBLIC "-//W3C//DTD SVG 1.1//EN" "http://www.w3.org/Graphics/SVG/1.1/DTD/svg11.dtd">
<svg version="1.1" id="Layer_1" xmlns="http://www.w3.org/2000/svg" xmlns:xlink="http://www.w3.org/1999/xlink" x="0px" y="0px"
	 viewBox="-255 347 100 100" enable-background="new -255 347 100 100" xml:space="preserve">
<g id="Your_Icon">
	<path d="M-156.1,415.6c-0.2-1.1-1.2-1.8-2.3-1.7c1.2-0.2,1.9-1.3,1.7-2.5c-0.2-1.2-1.3-1.9-2.5-1.7c-1.2,0.2-4.4,0.8-5.5,1
		c0,0,0-0.1,0-0.1c-1.5-7.5-9.3-14.2-21.4-12.5c-5.2,0.7-9.8,3.4-13,7.6c-2.2,2.9-3.5,6.2-3.8,9.6c-0.5-0.1-1-0.1-1.6-0.1
		c-1.4,0.2-2.6,0.9-3.4,2c-0.8,1.1-1.2,2.5-1,3.9c0.4,2.6,2.6,4.5,5.2,4.5c0.2,0,0.5,0,0.7,0c0.5-0.1,1-0.3,1.5-0.5
		c0.2,0.5,0.5,1,0.7,1.5l-3.2,2.3c-1.3-1.1-2.9-1.7-4.7-1.7c-0.9,0-1.7,0.1-2.5,0.4l-8.9,3.2c-0.8,0.3-1.6,0.7-2.2,1.3l-5.4-3.7
		c0-0.1,0.1-0.3,0.1-0.4c0.4-2-0.1-3.9-1.2-5.6l-5.4-7.8c-1.4-2-3.7-3.2-6.1-3.2c0,0,0,0,0,0l-1.3-4.2c1.5-1.2,2.6-3,2.9-5.1
		l1.1-9.4c0.2-2-0.3-3.9-1.5-5.4l1.9-2.6c0.7,0.2,1.5,0.3,2.2,0.3c1,0,2-0.2,3-0.6l8.7-3.8c2.6-1.1,4.2-3.6,4.4-6.2l3-0.7
		c2,6.3,7.1,11.4,13.9,13.1c2.2,0.5,4.2,0.8,6.2,0.8c8.6,0,14.6-5,16.5-10.9c0,0,0-0.1,0-0.1c1.1,0.3,4.2,1.2,5.4,1.6
		c1.1,0.3,2.3-0.3,2.7-1.4c0.3-1.1-0.3-2.3-1.4-2.7c0,0,0,0,0,0c0.2,0,0.3,0.1,0.5,0.1c0.9,0,1.8-0.6,2-1.5c0.3-1.1-0.3-2.3-1.4-2.7
		c-0.5-0.1-4.2-1.2-5.6-1.6c0,0,0-0.1,0-0.1c1.4-7.5-3.3-16.7-15.1-19.7c-8.9-2.3-17.9,2-22.1,9.6c-0.4-0.3-0.9-0.5-1.5-0.7
		c-0.4-0.1-0.8-0.2-1.3-0.2c-2.4,0-4.5,1.6-5,3.9c-0.7,2.8,1,5.6,3.8,6.3c0.4,0.1,0.8,0.2,1.3,0.2c0.1,0,0.2,0,0.3,0
		c0,0.6,0,1.1,0.1,1.7l-3.1,0.8c-1.3-2.4-3.8-3.9-6.5-3.9c-1,0-2,0.2-3,0.6l-8.7,3.8c-3.8,1.7-5.5,6.1-3.8,9.8
		c0.3,0.6,0.6,1.2,1.1,1.7l-1.8,2.5c-0.5-0.2-1-0.3-1.6-0.4c-4.1-0.5-7.8,2.5-8.3,6.6l-1.1,9.4c-0.2,2,0.3,3.9,1.6,5.5
		c1.2,1.6,3,2.5,5,2.8c0.3,0,0.6,0,0.8,0c0.2,0,0.4,0,0.6,0l1.2,4c0,0-0.1,0-0.1,0.1c-1.6,1.1-2.7,2.8-3.1,4.8
		c-0.4,2,0.1,3.9,1.2,5.6l5.4,7.8c1.4,2,3.7,3.2,6.1,3.2c1.5,0,3-0.5,4.2-1.3c0.3-0.2,0.6-0.5,0.9-0.7l5.2,3.6
		c-0.5,1.5-0.5,3.2,0.1,4.7c1.1,3,3.9,5,7,5c0.9,0,1.7-0.1,2.5-0.4l8.9-3.2c3.8-1.4,5.8-5.5,4.6-9.3l3.1-2.3
		c3.7,4.4,9.2,7.1,15.1,7.1c0.9,0,1.8-0.1,2.7-0.2c12.1-1.7,17.8-10.3,17.1-17.9c0,0,0-0.1,0-0.1c1.4-0.2,5.3-1,5.7-1
		C-156.7,417.9-155.9,416.8-156.1,415.6z M-193.7,352.7c7,1.8,13.3,7.4,11.9,14.7c-0.4,2.2,0.8,4.4,2.8,4.9c-2-0.5-4.1,0.9-4.8,3
		c-2.2,7.1-10.5,9-17.5,7.3c-8.3-2.1-13.3-10.5-11.2-18.8C-210.4,355.7-202,350.7-193.7,352.7z M-217.7,363.5
		c-0.5-0.1-0.8-0.6-0.7-1.1c0.1-0.4,0.5-0.7,0.9-0.7c0.1,0,0.2,0,0.2,0c0.5,0.1,0.8,0.6,0.7,1.1c0,0,0,0,0,0s0,0,0,0
		C-216.7,363.4-217.2,363.7-217.7,363.5z M-236.7,374.7l8.7-3.8c0.4-0.2,0.8-0.3,1.3-0.3c0.8,0,1.5,0.3,2.1,0.8l-2.9,0.7
		c-1.1,0.3-1.8,1.4-1.6,2.6c0.2,1,1.1,1.6,2.1,1.6c0.2,0,0.3,0,0.5-0.1l2.5-0.6c-0.3,0.5-0.8,0.9-1.3,1.1l-8.7,3.8
		c-0.2,0.1-0.4,0.2-0.6,0.2l1.4-1.9c0.7-1,0.5-2.3-0.5-3c-1-0.7-2.3-0.5-3,0.5l-1.6,2.2C-238.9,377-238.2,375.4-236.7,374.7z
		 M-248.9,403.3c-0.5-0.7-0.8-1.5-0.7-2.4l1.1-9.4c0.2-1.5,1.3-2.6,2.8-2.8l-1,1.3c-0.7,1-0.5,2.3,0.5,3c0.4,0.3,0.8,0.4,1.2,0.4
		c0.7,0,1.3-0.3,1.7-0.9l1-1.4c0.1,0.3,0.1,0.7,0.1,1.1l-1.1,9.4c0,0.2-0.1,0.4-0.1,0.6l-0.5-1.5c-0.3-1.1-1.5-1.8-2.7-1.4
		c-1.1,0.3-1.8,1.5-1.4,2.7l0.7,2.4C-247.9,404.2-248.5,403.9-248.9,403.3z M-237.8,428.5l-5.4-7.8c-0.5-0.7-0.7-1.5-0.5-2.4
		c0.1-0.4,0.2-0.8,0.4-1.1l0.5,1.6c0.3,0.9,1.1,1.5,2,1.5c0.2,0,0.4,0,0.6-0.1c1.1-0.3,1.8-1.5,1.4-2.7l-0.5-1.6
		c0.5,0.2,0.9,0.6,1.3,1.1l5.4,7.8c0.1,0.2,0.2,0.4,0.3,0.6l-1.7-1.1c-1-0.7-2.3-0.4-3,0.5c-0.7,1-0.4,2.3,0.5,3l2.5,1.7
		C-235.1,430.2-236.9,429.8-237.8,428.5z M-207.7,437.7l-8.9,3.2c-1.6,0.6-3.5-0.3-4.1-1.9c-0.1-0.2-0.1-0.3-0.1-0.5l1.5,1.1
		c0.4,0.3,0.8,0.4,1.2,0.4c0.7,0,1.3-0.3,1.8-0.9c0.7-1,0.4-2.3-0.5-3l-1.7-1.2l8.7-3.1c0.3-0.1,0.7-0.2,1.1-0.2
		c0.3,0,0.6,0.1,0.9,0.1l-1.8,1.3c-1,0.7-1.2,2-0.5,3c0.4,0.6,1.1,0.9,1.7,0.9c0.4,0,0.9-0.1,1.3-0.4l1.5-1.1
		C-205.9,436.4-206.6,437.4-207.7,437.7z M-203.1,421c-0.1,0.1-0.3,0.3-0.6,0.4c-0.5,0.1-1-0.3-1-0.8c0-0.3,0.1-0.6,0.2-0.7
		c0.1-0.1,0.3-0.3,0.6-0.4c0,0,0.1,0,0.1,0c0.5,0,0.8,0.3,0.9,0.8c0,0,0,0,0,0c0,0,0,0,0,0C-202.9,420.6-203.1,420.9-203.1,421z
		 M-181.3,432.9c-8.4,1.2-16.2-4.7-17.4-13.2c-0.6-4.1,0.5-8.1,3-11.4c2.5-3.3,6.1-5.4,10.2-6c9.4-1.3,15.5,3.6,16.6,9.1
		c0.4,2.2,2.4,3.8,4.4,3.5c-2,0.3-3.5,2.3-3.3,4.6C-167.3,427-174.2,431.9-181.3,432.9z"/>
</g>
</svg>
