<?xml version="1.0" encoding="utf-8"?>
<!-- Generator: Adobe Illustrator 18.1.0, SVG Export Plug-In . SVG Version: 6.00 Build 0)  -->
<!DOCTYPE svg PUBLIC "-//W3C//DTD SVG 1.1//EN" "http://www.w3.org/Graphics/SVG/1.1/DTD/svg11.dtd">
<svg version="1.1" id="Layer_1" xmlns="http://www.w3.org/2000/svg" xmlns:xlink="http://www.w3.org/1999/xlink" x="0px" y="0px"
	 viewBox="31 91 550 610" enable-background="new 31 91 550 610" xml:space="preserve">
<path fill="#87714F" d="M545,511.9c-4.3,0-8,1.2-11,3.7l-70.4-118.7L534,278.7c3.1,1.8,7.3,3.7,11,3.7c12.2,0,22.6-9.8,22.6-22.6
	c0-12.2-9.8-22.6-22.6-22.6c-12.2,0-22.6,9.8-22.6,22.6l-137.7,1.8l-67.3-120c6.7-3.7,11.6-11,11.6-19c0-12.2-9.8-22.6-22.6-22.6
	c-12.2,0-22.6,9.8-22.6,22.6c0,8.6,4.9,15.3,11.6,19l-67.3,120l-137.7-1.8c0-12.2-9.8-22.6-22.6-22.6c-12.2,0-22.6,9.8-22.6,22.6
	c0,12.2,9.8,22.6,22.6,22.6c4.3,0,8-1.2,11-3.7l70.4,118.1L78.7,515.6c-3.7-1.8-7.3-3.7-11-3.7c-12.2,0-22.6,9.8-22.6,22.6
	c0,12.2,9.8,22.6,22.6,22.6c12.2,0,22.6-9.8,22.6-22.6l137.7-1.8l67.3,120c-6.7,3.7-11.6,11-11.6,19c0,12.2,9.8,22.6,22.6,22.6
	c12.2,0,22.6-9.8,22.6-22.6c0-8.6-4.9-15.3-11.6-19l67.3-120l137.7,1.8c0,12.2,9.8,22.6,22.6,22.6c12.2,0,22.6-9.8,22.6-22.6
	C567,522.3,557.3,511.9,545,511.9z"/>
</svg>
