<svg xmlns="http://www.w3.org/2000/svg" viewBox="-255 347 100 100" enable-background="new -255 347 100 100"><path d="M-166.1 415.9c-.7 0-1.3.2-1.8.6l-11.5-19.4 11.5-19.3c.5.3 1.2.6 1.8.6 2 0 3.7-1.6 3.7-3.7 0-2-1.6-3.7-3.7-3.7-2 0-3.7 1.6-3.7 3.7l-22.5.3-11-19.6c1.1-.6 1.9-1.8 1.9-3.1 0-2-1.6-3.7-3.7-3.7-2 0-3.7 1.6-3.7 3.7 0 1.4.8 2.5 1.9 3.1l-11 19.6-22.5-.3c0-2-1.6-3.7-3.7-3.7-2 0-3.7 1.6-3.7 3.7 0 2 1.6 3.7 3.7 3.7.7 0 1.3-.2 1.8-.6l11.5 19.3-11.5 19.4c-.6-.3-1.2-.6-1.8-.6-2 0-3.7 1.6-3.7 3.7 0 2 1.6 3.7 3.7 3.7 2 0 3.7-1.6 3.7-3.7l22.5-.3 11 19.6c-1.1.6-1.9 1.8-1.9 3.1 0 2 1.6 3.7 3.7 3.7 2 0 3.7-1.6 3.7-3.7 0-1.4-.8-2.5-1.9-3.1l11-19.6 22.5.3c0 2 1.6 3.7 3.7 3.7 2 0 3.7-1.6 3.7-3.7-.1-2-1.7-3.7-3.7-3.7z"/></svg>